<?xml version="1.0" encoding="UTF-8"?>
<!DOCTYPE svg PUBLIC "-//W3C//DTD SVG 1.1//EN" "http://www.w3.org/Graphics/SVG/1.1/DTD/svg11.dtd">
<!-- Creator: CorelDRAW -->
<svg xmlns="http://www.w3.org/2000/svg" xml:space="preserve" width="2400px" height="3300px" style="shape-rendering:geometricPrecision; text-rendering:geometricPrecision; image-rendering:optimizeQuality; fill-rule:evenodd; clip-rule:evenodd"
viewBox="0 0 2400 3105.88"
 xmlns:xlink="http://www.w3.org/1999/xlink"
 version="1.1">
 <defs>
  <style type="text/css">
   <![CDATA[
    .fil0 {fill:white}
   ]]>
  </style>
 </defs>
 <g id="Capa_x0020_1">
  <metadata id="CorelCorpID_0Corel-Layer"/>
  <g id="_156904784">
   <g id="_3_1_">
    <g>
     <path id="_156905240" class="fil0" d="M480 920.971l1440 0c99.3593,0 180,-59.9711 180,-134.014 0,-74.0443 -80.5495,-134.015 -180,-134.015l-1440 0c-99.4505,0 -180,59.9711 -180,134.015 0,74.0432 80.5495,134.014 180,134.014zm1440 268.03l-1440 0c-99.4505,0 -180,59.9722 -180,134.015 0,74.0409 80.5495,134.015 180,134.015l1440 0c99.3593,0 180,-59.9744 180,-134.015 0,-74.0432 -80.5495,-134.015 -180,-134.015zm0 536.06l-1440 0c-99.4505,0 -180,59.9711 -180,134.014 0,74.0443 80.5495,134.015 180,134.015l1440 0c99.3593,0 180,-59.9711 180,-134.015 0,-74.0432 -80.5495,-134.014 -180,-134.014z"/>
    </g>
   </g>
  </g>
  <g id="_156904904">
  </g>
  <g id="_156905048">
  </g>
  <g id="_156905024">
  </g>
  <g id="_156905360">
  </g>
  <g id="_156905432">
  </g>
  <g id="_156905504">
  </g>
  <g id="_156905576">
  </g>
  <g id="_156905648">
  </g>
  <g id="_156905720">
  </g>
  <g id="_156905792">
  </g>
  <g id="_156905864">
  </g>
  <g id="_156905936">
  </g>
  <g id="_156906008">
  </g>
  <g id="_156906080">
  </g>
  <g id="_156906152">
  </g>
 </g>
</svg>
